# xmcd
#
# Track frame offsets:
#	150
#	43655
#	57161
#	83041
#	122197
#	147178
#	164838
#	256478
#	293704
#
# Disc length: 4286 seconds
#
# Revision: 1
# Processed by: cddbd v1.5.2PL0 Copyright (c) Steve Scherf et al.
# Submitted via: audiograbber 1.83.01
#
DISCID=8410bc09
DTITLE=Grateful Dead - 70-12-31 Winterland Arena, San Francisco CA
DYEAR=1900
DGENRE=
TTITLE0=Truckin'
TTITLE1=Monkey and The Engineer
TTITLE2=Cold Rain and Snow
TTITLE3=Easy Wind > Big Railroad Blues
TTITLE4=Cumberland Blues
TTITLE5=Dire Wolf
TTITLE6=Cryptical Envelopment > Drums > The Other One > Cryptical Envelopment
TTITLE7=Black Peter
TTITLE8=Sugar Magnolia
EXTD=
EXTT0=
EXTT1=
EXTT2=
EXTT3=
EXTT4=
EXTT5=
EXTT6=
EXTT7=
EXTT8=
PLAYORDER=
